<svg width="102" height="14" viewBox="0 0 102 14" fill="none" xmlns="http://www.w3.org/2000/svg">
<g clip-path="url(#clip0)">
<path d="M11.2719 10.6074H4.64139L3.37053 13.2354H0L6.35428 0.907715H9.6143L16.0238 13.2831H12.5428L11.2719 10.6074ZM10.2221 8.4572L7.95666 3.72683L5.69122 8.4572H10.2221Z" fill="black"/>
<path d="M35.3077 13.2831L31.8819 8.9828L28.5114 13.2831H24.6988L30.0032 7.02376L24.9751 0.907715H28.7324L31.9924 4.92137L35.1972 0.907715H38.7887L33.8158 6.88041L39.1203 13.2831H35.3077Z" fill="black"/>
<path d="M64.3164 7.07168C64.3164 3.3925 67.6316 0.668945 72.1073 0.668945C76.5829 0.668945 79.8982 3.34471 79.8982 7.07168C79.8982 10.7509 76.5829 13.4744 72.1073 13.4744C67.6316 13.4744 64.3164 10.7509 64.3164 7.07168ZM76.5829 7.07168C76.5829 4.73038 74.649 3.10581 72.1073 3.10581C69.5656 3.10581 67.6316 4.73038 67.6316 7.07168C67.6316 9.41297 69.5656 11.0375 72.1073 11.0375C74.649 11.0375 76.5829 9.46075 76.5829 7.07168Z" fill="black"/>
<path d="M90.1203 12.041L91.2254 9.89086C92.441 10.6554 94.2091 11.181 95.922 11.181C97.8559 11.181 98.6847 10.6076 98.6847 9.84308C98.6847 7.54956 90.3965 9.12635 90.3965 4.53932C90.3965 2.43693 92.3305 0.716797 96.4193 0.716797C98.1874 0.716797 100.066 1.09905 101.392 1.81577L100.398 3.96594C99.0715 3.297 97.6901 3.01031 96.4193 3.01031C94.4854 3.01031 93.7118 3.63147 93.7118 4.44376C93.7118 6.73728 102 5.16048 102 9.69973C102 11.7543 100.011 13.5223 95.922 13.5223C93.6566 13.4745 91.3911 12.9011 90.1203 12.041Z" fill="black"/>
<path d="M51.2763 2.10254L47.3532 5.49503H49.5634V14.0001L51.2763 12.5189V2.10254Z" fill="black"/>
<path d="M52.1603 11.8976L56.1387 8.50512H53.8732V0L52.1603 1.48123V11.8976Z" fill="black"/>
</g>
<defs>
<clipPath id="clip0">
<rect width="102" height="14" fill="white"/>
</clipPath>
</defs>
</svg>
