<svg width="80" height="27" viewBox="0 0 80 27" fill="none" xmlns="http://www.w3.org/2000/svg">
<g clip-path="url(#clip0)">
<path fill-rule="evenodd" clip-rule="evenodd" d="M9.53455 0C10.9891 0 12.3628 0 13.8174 0C13.8174 6.49565 13.8174 12.9913 13.8174 19.5652C9.69617 20.1913 5.81738 20.5826 2.9891 19.0957C-0.647266 17.1391 -0.88969 10.9565 1.93859 8.13913C3.39314 6.73043 6.30223 5.7913 9.45374 6.41739C9.45374 4.38261 9.45374 2.34783 9.45374 0.313043C9.37294 0.156522 9.37294 0 9.53455 0ZM4.36284 13.2261C4.36284 15.8087 6.30223 17.2957 9.37294 16.5913C9.37294 14.3217 9.37294 12.0522 9.37294 9.78261C6.30223 8.92174 4.36284 10.7217 4.36284 13.2261Z" fill="black"/>
<path fill-rule="evenodd" clip-rule="evenodd" d="M20.6869 0C20.6869 1.4087 20.6869 2.89565 20.6869 4.30435C19.2323 4.30435 17.8586 4.30435 16.4041 4.30435C16.4041 2.89565 16.4041 1.4087 16.4041 0C17.8586 0 19.2323 0 20.6869 0Z" fill="black"/>
<path fill-rule="evenodd" clip-rule="evenodd" d="M72 6.2611C75.5556 5.86979 78.2222 7.43501 79.2727 9.78284C81.1313 13.7741 79.1919 18.3133 76.2828 19.6437C74.7475 20.3481 73.2121 20.4263 71.7576 20.2698C67.3131 19.8785 64.4849 15.4959 66.101 10.6437C66.3434 9.8611 66.5859 9.39153 66.7475 9.15675C67.6364 7.59153 69.2525 6.49588 72 6.2611ZM71.7576 16.7481C76.3636 18.4698 76.9293 8.68719 72.2424 9.62632C69.3333 10.1741 69.4141 15.8872 71.7576 16.7481Z" fill="black"/>
<path fill-rule="evenodd" clip-rule="evenodd" d="M34.0202 19.7218C30.4647 19.9566 25.1313 21.0522 23.1919 18.7827C22.0606 17.4522 22.2222 14.8696 23.1919 13.6175C24.4849 11.974 27.3131 11.6609 29.899 11.4262C30.1414 10.8783 29.9798 9.9392 29.7374 9.62616C27.394 9.07834 25.0505 9.9392 23.4344 10.6436C23.4344 9.5479 23.4344 8.53051 23.4344 7.43486C25.9394 6.33921 31.7576 5.16529 33.4546 7.7479C34.3435 9.07834 34.0202 11.4262 34.0202 13.5392C34.0202 15.6522 34.0202 17.687 34.0202 19.7218ZM26.5051 15.1827C25.2929 17.0609 28.2828 17.5305 30.2222 16.9827C30.2222 16.0436 30.2222 15.1044 30.2222 14.1653C28.7677 14.4001 27.0707 14.3218 26.5051 15.1827Z" fill="black"/>
<path fill-rule="evenodd" clip-rule="evenodd" d="M48.9697 19.8784C47.5152 19.8784 46.1414 19.8784 44.6869 19.8784C44.6869 18.548 44.6869 16.5132 44.6869 14.5567C44.6869 12.8349 45.0101 10.5654 44.0404 9.86103C43.3131 9.31321 41.5354 9.54799 40.4849 9.86103C40.4849 13.2263 40.4849 16.5132 40.4849 19.8784C39.0303 19.8784 37.6566 19.8784 36.202 19.8784C36.202 15.6523 36.202 11.348 36.202 7.1219C40.5657 6.02625 48.404 4.85234 48.9697 10.1741C49.2121 12.7567 48.7273 16.6697 48.9697 19.8784Z" fill="black"/>
<path fill-rule="evenodd" clip-rule="evenodd" d="M66.0202 6.80874C65.6162 7.90439 65.0505 8.84352 64.5657 9.86091C64.1616 9.93917 63.7576 9.70439 63.5152 9.86091C63.4343 14.3218 64.4849 20.3479 62.6263 23.6348C61.495 25.5913 59.4748 26.8435 56.404 27C54.1414 27.1566 52.3636 26.7653 50.7475 26.1392C50.7475 24.887 50.7475 23.5566 50.7475 22.3044C52.6869 23.4 57.6162 24.3392 58.9899 21.9913C59.3939 21.287 59.3939 20.6609 59.5556 19.6435C58.6667 19.7218 57.7778 20.1131 56.7273 20.1131C52.2828 20.1913 49.5354 16.7479 50.5859 11.974C50.9899 10.0957 52.1212 8.60874 53.5758 7.74787C56.7273 5.86961 61.4949 6.02613 66.0202 6.80874ZM55.2727 15.4957C56 16.5913 57.9394 17.0609 59.5556 16.3566C59.4747 14.2435 59.4747 11.974 59.4747 9.78265C55.7576 8.76526 53.5758 12.8348 55.2727 15.4957Z" fill="black"/>
<path fill-rule="evenodd" clip-rule="evenodd" d="M20.6869 6.49574C20.6869 9.54792 20.6869 11.7392 20.6869 15.4175C20.5253 19.0175 20.5253 21.9131 19.1515 23.6349C18.9091 23.9479 18.3434 24.4957 17.8586 24.8088C17.4545 25.1218 16.6465 25.6697 16.2424 25.7479C15.8384 25.7479 14.7071 25.1218 14.1414 24.887C13.495 24.574 12.8485 24.1827 12.1212 23.9479C13.7374 23.0088 15.2727 22.2262 15.9192 20.2697C16.4849 18.5479 16.404 16.0436 16.404 13.6957C16.404 11.3479 16.404 8.53052 16.404 6.41748L20.6869 6.49574Z" fill="black"/>
</g>
<defs>
<clipPath id="clip0">
<rect width="80" height="27" fill="white"/>
</clipPath>
</defs>
</svg>
