<svg width="50" height="45" viewBox="0 0 50 45" fill="none" xmlns="http://www.w3.org/2000/svg">
<g clip-path="url(#clip0)">
<path d="M49.2738 36.3233L31.1755 2.80718C30.2354 1.08459 28.4191 0 26.4533 0H25.0003H23.5473C21.5815 0 19.7653 1.08459 18.8465 2.80718L0.726808 36.3233C-0.512508 38.5988 -0.170628 41.406 1.56014 43.3412L2.22254 44.0855C3.44048 45.4253 5.5986 45.2552 6.58151 43.724L23.526 16.8431C24.1883 15.7798 25.7482 15.7798 26.4106 16.8431L43.355 43.724C44.3166 45.2552 46.496 45.4466 47.714 44.0855L48.3764 43.3412C50.1713 41.406 50.4918 38.62 49.2738 36.3233Z" fill="black"/>
</g>
<defs>
<clipPath id="clip0">
<rect width="50" height="45" fill="white"/>
</clipPath>
</defs>
</svg>
