<svg width="106" height="20" viewBox="0 0 106 20" fill="none" xmlns="http://www.w3.org/2000/svg">
<path d="M15.2532 7.10877H8.01275V9.19408H13.1293C12.8397 12.1325 10.3297 13.4595 8.01275 13.4595C5.02004 13.4595 2.31694 11.0898 2.31694 7.86707C2.31694 4.64432 4.82696 2.17987 8.01275 2.17987C10.4262 2.17987 11.8743 3.69645 11.8743 3.69645L13.4189 2.17987C13.4189 2.17987 11.4882 0.0945574 7.91621 0.0945574C3.47541 -0.000229314 0 3.69645 0 7.77228C0 11.7533 3.28233 15.5448 8.10929 15.5448C12.357 15.5448 15.4463 12.7012 15.4463 8.53058C15.4463 7.58271 15.2532 7.10877 15.2532 7.10877Z" fill="black"/>
<path d="M21.2386 5.49756C18.2459 5.49756 16.122 7.77244 16.122 10.4265C16.122 13.1753 18.1494 15.4502 21.2386 15.4502C24.0383 15.4502 26.2587 13.3649 26.2587 10.5213C26.3552 7.20372 23.6521 5.49756 21.2386 5.49756ZM21.2386 7.48808C22.6867 7.48808 24.1348 8.62552 24.1348 10.5213C24.1348 12.3222 22.7832 13.5544 21.2386 13.5544C19.5974 13.5544 18.3424 12.3222 18.3424 10.5213C18.3424 8.81509 19.5974 7.48808 21.2386 7.48808Z" fill="black"/>
<path d="M32.3406 5.49756C29.3479 5.49756 27.2241 7.77244 27.2241 10.4265C27.2241 13.1753 29.2514 15.4502 32.3406 15.4502C35.1403 15.4502 37.3607 13.3649 37.3607 10.5213C37.4572 7.20372 34.7541 5.49756 32.3406 5.49756ZM32.3406 7.48808C33.7887 7.48808 35.2368 8.62552 35.2368 10.5213C35.2368 12.3222 33.8853 13.5544 32.3406 13.5544C30.6995 13.5544 29.4445 12.3222 29.4445 10.5213C29.4445 8.81509 30.6995 7.48808 32.3406 7.48808Z" fill="black"/>
<path d="M43.2495 5.49756C40.5464 5.49756 38.326 7.86723 38.326 10.5213C38.326 13.5544 40.8361 15.545 43.153 15.545C44.6011 15.545 45.3734 14.9762 45.9526 14.3127V15.2606C45.9526 16.9668 44.8907 18.0094 43.2495 18.0094C41.7049 18.0094 40.9326 16.872 40.643 16.2085L38.7122 16.9668C39.388 18.3886 40.8361 19.9051 43.2495 19.9051C45.9526 19.9051 48.0765 18.199 48.0765 14.6919V5.87671H45.9526V6.72979C45.3734 5.97149 44.408 5.49756 43.2495 5.49756ZM43.4426 7.48808C44.7942 7.48808 46.1457 8.62552 46.1457 10.5213C46.1457 12.5118 44.7942 13.5544 43.4426 13.5544C41.9945 13.5544 40.643 12.417 40.643 10.5213C40.643 8.62552 41.9945 7.48808 43.4426 7.48808Z" fill="black"/>
<path d="M57.6339 5.49756C55.0273 5.49756 52.9034 7.48808 52.9034 10.5213C52.9034 13.6492 55.3169 15.545 57.9235 15.545C60.0473 15.545 61.3989 14.4075 62.1712 13.3649L60.4335 12.2274C59.9508 12.8909 59.1785 13.5544 57.9235 13.5544C56.4754 13.5544 55.7996 12.7961 55.4135 12.0378L62.2677 9.28903L61.785 8.43595C61.2058 6.82457 59.6612 5.49756 57.6339 5.49756ZM57.7304 7.48808C58.6958 7.48808 59.3716 7.96201 59.5646 8.53073L55.0273 10.4265C54.8342 8.90988 56.1858 7.48808 57.7304 7.48808Z" fill="black"/>
<path d="M49.6211 15.2604H51.8415V0.473633H49.6211V15.2604Z" fill="black"/>
<path d="M73.8525 11.185H67.6739L66.3224 14.9765H64.2951L69.8943 0.474121H71.632L77.2313 15.0713H75.3005L73.8525 11.185ZM68.2532 9.66843H73.2732L70.7632 2.84379L68.2532 9.66843Z" fill="black"/>
<path d="M81.1894 9.38407V15.0713H79.2586V0.474121H84.6648C86.306 0.474121 87.561 0.853268 88.4299 1.70635C89.3953 2.55943 89.7814 3.60208 89.7814 4.9291C89.7814 6.3509 89.2987 7.39355 88.4299 8.15185C87.561 8.91014 86.2095 9.28929 84.5683 9.28929H81.1894V9.38407ZM81.1894 7.7727H84.6648C85.7268 7.7727 86.4991 7.48834 87.0783 7.01441C87.6575 6.54047 87.9472 5.87696 87.9472 4.9291C87.9472 4.07602 87.6575 3.41251 87.0783 2.84379C86.4991 2.36986 85.7268 2.0855 84.7614 1.99071H81.1894V7.7727Z" fill="black"/>
<path d="M94.5118 15.0713H92.5811V0.474121H94.5118V15.0713Z" fill="black"/>
<path d="M104.166 12.1327C104.166 11.6588 103.973 11.2797 103.587 10.9953C103.2 10.7109 102.525 10.5214 101.559 10.237C100.594 10.0474 99.8215 9.76307 99.3388 9.47871C98.7596 9.19435 98.3734 8.90999 98.0838 8.43605C97.7942 8.05691 97.6976 7.58297 97.6976 7.01425C97.6976 6.16117 98.0838 5.40288 98.8561 4.73937C99.6284 4.17065 100.594 3.7915 101.752 3.7915C103.007 3.7915 103.973 4.07586 104.745 4.73937C105.517 5.40288 105.903 6.16117 105.903 7.20383H103.973C103.973 6.72989 103.78 6.25596 103.297 5.87681C102.814 5.49766 102.332 5.30809 101.656 5.30809C100.98 5.30809 100.401 5.49767 100.015 5.78203C99.6284 6.06639 99.4353 6.44553 99.4353 6.91947C99.4353 7.3934 99.6284 7.67776 100.015 7.96212C100.401 8.15169 100.98 8.43605 101.945 8.62563C102.911 8.8152 103.683 9.09956 104.262 9.38392C104.842 9.66828 105.324 10.0474 105.517 10.4266C105.807 10.8057 105.903 11.2797 105.903 11.9432C105.903 12.891 105.517 13.6493 104.745 14.218C103.973 14.7868 102.911 15.0711 101.656 15.0711C100.787 15.0711 100.015 14.8816 99.3388 14.5972C98.663 14.3128 98.0838 13.8389 97.7942 13.2702C97.408 12.7015 97.2149 12.1327 97.2149 11.4692H99.0492C99.0492 12.1327 99.3388 12.6067 99.8215 12.9858C100.304 13.365 100.883 13.5545 101.656 13.5545C102.332 13.5545 102.911 13.4598 103.393 13.1754C103.973 12.9858 104.166 12.6067 104.166 12.1327Z" fill="black"/>
</svg>
