<svg width="52" height="34" viewBox="0 0 52 34" fill="none" xmlns="http://www.w3.org/2000/svg">
<g clip-path="url(#clip0)">
<path d="M46.8108 9.92066C46.3784 9.40394 45.6216 8.16382 44.8649 8.06047C44.4324 8.06047 44 8.06047 43.6757 8.16382C41.7297 8.47385 40 8.78388 37.9459 9.09391C37.2973 9.19725 36.1081 9.30059 36 9.71397C35.8919 10.1273 36.4324 10.5407 36.5405 10.7474C37.7297 12.2976 38.8108 13.8477 40 15.3979C40.4324 16.0179 40.973 16.638 41.2973 17.258C36.1081 18.3948 30.9189 19.6349 25.7297 20.8751C25.4054 20.4617 25.0811 20.0483 24.8649 19.6349C21.0811 13.641 17.2973 7.54376 13.5135 1.54984C13.1892 1.03312 12.973 0.413058 12.4324 0.206371H12.3243C12.3243 0.206371 12.2162 0.206371 12.1081 0.103027H12C11.8919 0.103027 11.6757 0.103027 11.5676 0.103027C11.2432 0.103027 10.9189 0.103027 10.5946 0.103027C7.89189 0.206371 4.64865 0.516401 1.83784 0.723088C0.972973 0.826431 0.216216 0.723088 0 1.34315C0 1.44649 0 1.65318 0 1.75652C0.756757 3.72005 1.83784 5.68357 2.7027 7.6471C3.56757 9.61063 4.54054 11.4708 5.51351 13.4343C6.91892 16.3279 8.32432 19.2216 9.72973 22.1152C10.1622 23.1486 10.7027 24.1821 11.3514 25.2155C11.4595 25.3188 11.5676 25.4222 11.6757 25.5255C11.7838 25.6289 11.8919 25.6289 12 25.7322C12.1081 25.8355 12.3243 25.8355 12.5405 25.9389C12.6487 25.9389 12.7568 25.9389 12.8649 25.9389C13.0811 25.9389 13.2973 25.9389 13.5135 25.8355C17.2973 25.0088 20.8649 23.9754 24.6486 23.1486C26.0541 25.5255 27.6757 28.3158 29.0811 30.796C29.5135 31.6228 30.0541 32.5529 30.7027 33.2763C30.9189 33.483 31.2432 33.6897 31.5676 33.793C31.7838 33.793 32 33.793 32.2162 33.793C35.4595 32.8629 38.5946 31.7261 41.8378 30.5893C44.2162 29.7626 46.4865 28.9359 48.973 28.1091C49.2973 28.0058 49.7297 27.9024 50.1622 27.6957C50.5946 27.489 51.027 27.2824 51.1351 27.0757C51.1351 26.6623 50.5946 26.1456 50.3784 25.8355C48.973 23.9754 47.5676 22.2185 46.1622 20.3583C45.6216 19.6349 44.973 18.9115 44.5405 18.1881C45.7297 17.8781 46.9189 17.5681 48.1081 17.258C49.2973 16.948 50.4865 16.7413 51.6757 16.3279C51.8919 16.3279 52.1081 16.1213 52.2162 16.0179V15.8112C50.2703 14.0544 48.6487 12.0909 46.8108 9.92066ZM23.3514 21.2884C23.2432 21.4951 22.3784 21.5985 22.1622 21.5985C19.1351 22.3219 16.3243 22.9419 13.2973 23.562L12.6486 22.4252L12.5405 22.2185C10.9189 19.1182 9.2973 16.0179 7.78378 12.8143C6.27027 9.61062 4.64865 6.61367 3.13514 3.51336L2.91892 3.20333C2.81081 3.09999 2.7027 2.78996 2.59459 2.58327L2.37838 2.1699H2.81081C5.62162 1.85987 8.64865 1.65318 11.4595 1.44649C15.3514 7.75044 19.2432 14.2611 23.1351 20.6684C23.2432 20.8751 23.3514 21.0817 23.3514 21.2884ZM47.4595 25.2155C47.6757 25.4222 48.1081 25.9389 48.1081 26.1456C48.1081 26.3523 47.5676 26.4556 47.2432 26.559C43.5676 27.6957 40 28.9359 36.3243 30.0726C35.3514 30.3827 34.3784 30.6927 33.2973 31.0027C32.973 31.1061 32.6487 31.2094 32.3243 31.3127C32 31.3127 31.6757 30.6927 31.4595 30.3827C29.8378 27.7991 28.3243 25.2155 26.8108 22.6319C30.5946 21.7018 34.5946 20.6684 38.4865 19.7383C39.7838 19.4283 41.0811 19.1182 42.3784 18.8082H42.4865L42.7027 18.7048L43.1351 19.2216L43.2432 19.6349C44.6487 21.4951 46.0541 23.3553 47.4595 25.2155ZM48 15.7079C46.3784 16.0179 44.7568 16.5346 43.1351 16.8447C41.8378 15.2945 40.7568 13.7444 39.5676 12.0909C39.1351 11.5742 38.7027 11.0574 38.3784 10.5407C38.5946 10.4374 38.8108 10.334 39.1351 10.334C40.6487 10.024 42.2703 9.81731 43.7838 9.50728C44.1081 9.40394 44.3243 9.40394 44.6487 9.40394C44.973 9.50728 45.1892 9.81731 45.4054 10.1273C46.0541 10.8507 46.5946 11.5742 47.2432 12.2976C48.1081 13.4343 48.973 14.2611 49.6216 15.2945C49.0811 15.5012 48.5405 15.7079 48 15.7079Z" fill="black"/>
</g>
<defs>
<clipPath id="clip0">
<rect width="52" height="34" fill="white"/>
</clipPath>
</defs>
</svg>
