<svg width="50" height="41" viewBox="0 0 50 41" fill="none" xmlns="http://www.w3.org/2000/svg">
<g clip-path="url(#clip0)">
<path d="M3.18921 7.21484V24.282L6.11184 22.6347V8.86218L3.18921 7.21484Z" fill="black"/>
<path d="M0.266602 22.635V2.0625L17.6496 11.9657V15.4519L3.18923 7.21521V24.2823L0.266602 22.635Z" fill="#1C1C1C"/>
<path d="M35.4146 2.0625V22.635L23.7049 29.2435L20.7823 27.4046L32.4919 20.7961V7.02366L17.6496 15.471V11.9848L35.4146 2.0625Z" fill="black"/>
<path d="M32.4919 0.415039L17.8406 8.67086L3.18923 0.415039L0.266602 2.06237L17.6496 11.9847L35.4145 2.08153L32.4919 0.415039Z" fill="#0A0A0A"/>
<path d="M29.5502 8.67077V19.1294L32.4728 20.7767V7.02344L29.5502 8.67077Z" fill="#1C1C1C"/>
<path d="M14.9179 27.4047L29.5693 19.1489L32.4919 20.7963L20.7823 27.4047L32.32 34.0132L44.0296 27.4047L46.9522 29.0521L32.3009 37.3079L14.9179 27.4047Z" fill="#0A0A0A"/>
<path d="M14.9179 27.4044V30.8906L32.3009 40.7938V37.3076L14.9179 27.4044ZM46.9522 29.0518V18.7655L44.0105 17.1182V27.4044L46.9522 29.0518Z" fill="#1C1C1C"/>
<path d="M32.3009 37.3076L46.9523 29.0518V18.7655L49.8749 17.1182V30.8906L32.3009 40.7938V37.3076Z" fill="black"/>
<path d="M49.8749 17.118L46.9522 18.7654L44.0105 17.118L46.9331 15.4707L49.8749 17.118Z" fill="#0A0A0A"/>
<path d="M46.9522 15.471V11.9847L49.8749 10.3374V13.8236L46.9522 15.471Z" fill="black"/>
<path d="M46.9522 11.9844V15.4706L44.0105 13.8232V10.3179L46.9522 11.9844Z" fill="#1C1C1C"/>
<path d="M49.8749 10.3373L46.9522 11.9846L44.0105 10.3373L46.9331 8.68994L49.8749 10.3373Z" fill="#0A0A0A"/>
</g>
<defs>
<clipPath id="clip0">
<rect width="49.6083" height="40.3788" fill="white" transform="translate(0.266602 0.415039)"/>
</clipPath>
</defs>
</svg>
