<svg width="40" height="51" viewBox="0 0 40 51" fill="none" xmlns="http://www.w3.org/2000/svg">
<g clip-path="url(#clip0)">
<path d="M36.9093 1.57161C34.3409 -0.322416 31.0591 -0.553395 28.2529 1.01726L5.28026 13.7211C4.8522 13.952 4.51926 14.3678 4.37658 14.876L0.0483966 31.183C-0.141853 31.876 0.143521 32.6613 0.714271 33.077C1.33258 33.539 2.14114 33.5852 2.80702 33.2156L12.8427 27.6722L9.32307 40.5145C9.13282 41.1613 9.32307 41.808 9.79869 42.27L18.5502 50.4928C18.8831 50.8162 19.3587 51.001 19.8819 51.001C20.0722 51.001 20.2149 51.001 20.4051 50.9086C21.071 50.7238 21.5466 50.2156 21.6893 49.6151L25.3992 35.202L31.0115 32.1069C32.9616 31.0444 34.436 29.2428 35.1019 27.164C35.1019 27.0716 35.1495 26.9792 35.1495 26.8868C35.1495 26.8406 35.197 26.7482 35.197 26.702L39.763 9.47106C40.5716 6.51454 39.4776 3.46563 36.9093 1.57161ZM19.0734 46.4738L13.8891 41.577L21.4039 37.4194L19.0734 46.4738ZM29.3469 29.3352L13.461 38.1124L16.9331 25.4548L24.7333 21.1586C26.7785 20.0037 28.8712 20.6042 30.1078 21.5281C31.2969 22.4058 32.3908 24.1151 31.9152 26.2401C31.5347 27.5336 30.5835 28.6423 29.3469 29.3352ZM36.5288 8.73193L33.4848 20.1885C33.1043 19.7265 32.6287 19.2645 32.1055 18.895C29.442 16.9086 25.9699 16.6776 23.0686 18.2944L18.0746 21.0662L4.13876 28.7808L7.46813 16.2156L29.9176 3.83519C31.8201 2.77269 33.7702 3.32704 34.9117 4.15856C36.0532 5.03628 37.0995 6.65313 36.5288 8.73193Z" fill="#131313"/>
</g>
<defs>
<clipPath id="clip0">
<rect width="40" height="51" fill="white"/>
</clipPath>
</defs>
</svg>
