<svg width="53" height="36" viewBox="0 0 53 36" fill="none" xmlns="http://www.w3.org/2000/svg">
<path d="M15.1429 17.895H24.7123V17.0529H15.1429V10.316H25.3433V9.36865H14.0913V26.2108H25.4484V25.2634H15.1429V17.895Z" fill="black"/>
<path d="M45.5337 0L38.1726 9.36842L32.8095 16.7368L27.5516 9.36842H26.2897L32.1786 17.5789L25.869 26.2105H27.131L32.8095 18.3158L38.4881 26.2105H39.75L33.4405 17.5789L45.5337 0Z" fill="black"/>
<path d="M40.1706 9.36865V10.316H46.0595V26.2108H47.1111V10.316H53V9.36865H40.1706Z" fill="black"/>
<path d="M0 9.36865V26.2108H1.05159V10.6318L11.6726 26.2108L19.0337 36.0002L1.2619 9.36865H0Z" fill="black"/>
</svg>
