<svg width="62" height="33" viewBox="0 0 62 33" fill="none" xmlns="http://www.w3.org/2000/svg">
<path d="M52.7952 4.75962C46.9761 1.69231 39.1468 0 31 0C22.8532 0 15.0239 1.69231 9.20478 4.75962C3.27986 7.82692 0 12.0577 0 16.5C0 20.9423 3.27986 25.1731 9.20478 28.2404C15.0239 31.3077 22.7474 33 31 33C39.2526 33 46.9761 31.3077 52.7952 28.2404C58.7201 25.1731 62 20.9423 62 16.5C62 12.0577 58.7201 7.82692 52.7952 4.75962ZM59.7782 16.5C59.7782 24.4327 46.8703 30.8846 31 30.8846C15.1297 30.8846 2.11604 24.4327 2.11604 16.5C2.11604 8.56731 15.1297 2.11538 31 2.11538C46.8703 2.11538 59.7782 8.56731 59.7782 16.5Z" fill="black"/>
<path fill-rule="evenodd" clip-rule="evenodd" d="M18.3038 11.9517C19.6792 11.9517 20.5256 12.1633 20.9488 12.6921C21.372 13.221 21.4778 14.0671 21.2662 15.2306C21.0546 16.4998 20.5256 17.346 19.8908 17.8748C19.1502 18.4037 18.198 18.721 16.7167 18.721H14.6007L15.8703 11.9517H18.3038ZM9.73379 25.4902H13.2253L14.0717 21.2594H17.0341C18.4096 21.2594 19.4676 21.1537 20.314 20.8364C21.1604 20.519 21.901 20.096 22.6416 19.4614C23.2765 18.9325 23.6997 18.2979 24.0171 17.6633C24.3345 17.0287 24.6519 16.2883 24.7577 15.5479C25.1809 13.644 24.8635 12.1633 23.9113 11.1056C22.959 10.0479 21.4778 9.51904 19.4676 9.51904H12.6962L9.73379 25.4902Z" fill="black"/>
<path fill-rule="evenodd" clip-rule="evenodd" d="M27.5085 5.18262H31L30.1536 9.41339H33.2218C35.1263 9.41339 36.5017 9.73069 37.2423 10.4711C37.9829 11.1057 38.1945 12.2692 37.8771 13.7499L36.3959 21.2595H32.9044L34.2799 14.173C34.3857 13.3268 34.3857 12.798 34.0683 12.4807C33.7509 12.1634 33.2218 12.0576 32.3754 12.0576H29.6246L27.8259 21.2595H24.3345L27.5085 5.18262Z" fill="black"/>
<path fill-rule="evenodd" clip-rule="evenodd" d="M45.6007 11.9517C46.9761 11.9517 47.8225 12.1633 48.2457 12.6921C48.6689 13.221 48.7748 14.0671 48.5631 15.2306C48.3515 16.4998 47.8225 17.346 47.1877 17.8748C46.4471 18.4037 45.4949 18.721 44.0137 18.721H41.8976L43.1672 11.9517H45.6007ZM37.1365 25.4902H40.628L41.4744 21.2594H44.4369C45.8123 21.2594 46.8703 21.1537 47.7167 20.8364C48.5631 20.519 49.3038 20.096 50.0444 19.4614C50.6792 18.9325 51.1024 18.2979 51.4198 17.6633C51.7372 17.0287 52.0546 16.2883 52.1604 15.5479C52.5836 13.644 52.2662 12.1633 51.314 11.1056C50.3618 10.0479 48.8806 9.51904 46.8703 9.51904H40.2048L37.1365 25.4902Z" fill="black"/>
</svg>
