<svg width="40" height="39" viewBox="0 0 40 39" fill="none" xmlns="http://www.w3.org/2000/svg">
<path d="M24.7721 0.413793C23.1635 0.206897 21.555 0 19.8391 0H19.7319C18.1233 0 16.5147 0.103448 15.1206 0.413793C11.1528 1.13793 10.4021 2.48276 10.4021 5.06897V8.48276H20.1609V10.0345H6.54155C3.64611 10.0345 1.3941 11.7931 0.643432 14.6897C-0.214477 18.3103 -0.214477 20.4828 0.643432 24.1034C1.17962 26.1724 2.46649 28.7586 5.68365 28.7586H8.79356V24.6207C8.79356 21.4138 11.689 18.6207 15.0134 18.6207H24.7721C27.3458 18.6207 29.4906 16.5517 29.4906 14.069V5.06897C29.4906 2.7931 27.4531 0.827586 24.7721 0.413793ZM14.4772 6.31034C13.5121 6.31034 12.6542 5.48276 12.6542 4.55172C12.6542 3.51724 13.5121 2.7931 14.4772 2.7931C15.4424 2.7931 16.3003 3.62069 16.3003 4.55172C16.3003 5.48276 15.4424 6.31034 14.4772 6.31034Z" fill="black"/>
<path d="M39.2493 14.6898C38.3914 11.4829 36.9973 10.0347 34.5308 10.0347H31.0992V14.0692C31.0992 17.3795 28.2038 20.1726 24.8794 20.1726H15.1206C12.5469 20.1726 10.4021 22.2416 10.4021 24.7243V33.6209C10.4021 36.414 13.4048 37.7588 15.1206 38.1726C16.8365 38.6898 18.3378 38.8967 19.8391 38.8967C21.3405 38.8967 22.9491 38.6898 24.6649 38.1726C26.8097 37.5519 29.3834 36.3105 29.3834 33.6209V30.2071H19.6247V28.6554H34.4236C36.9973 28.6554 38.0697 27.0002 39.1421 24.0002C40.2145 21.2071 40.2145 18.5174 39.2493 14.6898ZM25.4156 32.4829C26.3807 32.4829 27.2386 33.3105 27.2386 34.2416C27.2386 35.276 26.3807 36.0002 25.4156 36.0002C24.4504 36.0002 23.5925 35.1726 23.5925 34.2416C23.5925 33.3105 24.4504 32.4829 25.4156 32.4829Z" fill="black"/>
</svg>
