<svg width="41" height="47" viewBox="0 0 41 47" fill="none" xmlns="http://www.w3.org/2000/svg">
<g clip-path="url(#clip0)">
<path d="M38.9198 1.03506C36.8396 -0.777608 34.2897 -0.0654864 31.8069 2.07088H3.75777C1.67758 2.07088 0 3.68933 0 5.69622V38.1948C0 40.137 1.67758 41.7555 3.75777 41.7555H21.3388C21.5401 44.0213 21.8756 45.8987 22.3453 46.9345L22.6809 46.805C22.2111 45.3808 21.9427 43.6976 21.8756 41.7555C21.8085 41.1081 21.8085 40.4607 21.8756 39.8133C21.8756 39.5543 21.8756 39.2954 21.8756 39.0364C21.9427 38.1948 21.9427 37.3532 22.0769 36.5117C22.4795 32.3684 23.5532 27.6425 25.2979 22.7871C26.036 20.845 26.9084 18.9028 27.7807 17.1549C30.8674 10.8753 34.6252 5.95517 38.0475 3.3009C34.0213 6.86151 28.5188 18.2555 26.9083 22.4634C26.4386 23.7582 25.9689 24.9882 25.5663 26.2183C24.4255 29.5847 23.5532 32.7568 23.0164 35.929C23.3519 34.9579 23.8216 34.1163 24.4255 33.4042C26.2373 31.2031 28.7201 30.232 28.7201 30.232C28.7201 30.232 30.8674 27.7072 33.3503 24.0172C31.874 24.3408 29.3912 24.9235 28.5188 25.2472C27.5794 25.6356 27.1768 25.8298 27.0426 25.8946C27.5123 25.6356 31.1358 23.564 34.3568 22.5282C38.9198 15.4717 44.0196 5.43727 38.9198 1.03506ZM20.8691 22.7224C20.6007 23.564 20.3322 24.3409 20.1309 25.053C21.1375 26.8009 21.7414 29.7141 21.7414 29.7141C21.7414 29.7141 21.6743 29.5199 21.473 28.8725C21.2717 28.2899 20.1309 26.4125 19.9296 26.024C19.527 27.5778 19.3257 28.6783 19.4599 28.9373C19.7954 29.4552 20.0638 30.2968 20.3322 31.2678C20.9362 33.4042 21.3388 36.0585 21.3388 36.0585C21.3388 36.0585 21.3388 36.2527 21.3388 36.5117C21.2717 37.6769 21.2717 38.8422 21.3388 39.9428H3.75777C2.75123 39.8133 2.01309 39.1012 2.01309 38.1948V5.69622C2.01309 4.78989 2.75123 4.01303 3.75777 4.01303H29.8609C25.9018 8.54471 22.3453 15.9896 21.2046 21.8161C21.6743 22.7871 22.0769 23.9524 22.2782 24.8588C22.3453 25.1177 22.4124 25.3119 22.4124 25.5061C22.4795 25.8298 22.5466 26.0888 22.5466 26.2183C22.5466 26.1535 22.4795 25.9593 22.3453 25.7004C22.3453 25.6356 22.2782 25.5061 22.2111 25.4414C22.2111 25.3767 22.144 25.3119 22.144 25.3119C21.9427 24.5998 21.2046 23.2403 20.8691 22.7224Z" fill="black"/>
</g>
<defs>
<clipPath id="clip0">
<rect width="41" height="47" fill="white"/>
</clipPath>
</defs>
</svg>
