<svg width="118" height="115" viewBox="0 0 118 115" fill="none" xmlns="http://www.w3.org/2000/svg">
<g clip-path="url(#clip0)">
<path d="M117.086 62.5455L62.0864 114.909L6.45002 59.3636L5.99548 58.9091C2.81366 55.5455 0.81366 51 0.81366 46V44.5455L2.81366 42.5455L43.3591 2L45.3591 0H46.9046C51.7227 0 56.0864 1.81818 59.3591 4.81818L59.5409 5L60.3591 5.81818L60.5409 6L117.086 62.5455Z" fill="url(#paint0_linear)"/>
<path d="M65.3591 18.5455V46C65.3591 56.2727 57.0864 64.5455 46.8137 64.5455H19.3591C14.3591 64.5455 9.81366 62.5455 6.45002 59.2727L5.99548 58.8182C2.81366 55.5455 0.81366 51 0.81366 46V18.5455C0.81366 8.36364 9.1773 0 19.3591 0H46.8137C51.6318 0 55.9955 1.81818 59.2682 4.81818L59.45 5L60.2682 5.81818L60.45 6C63.5409 9.36364 65.3591 13.7273 65.3591 18.5455Z" fill="black"/>
<path d="M46.8136 62.5455H19.3591C10.1773 62.5455 2.81363 55.1818 2.81363 46V18.5455C2.81363 9.36363 10.1773 2 19.3591 2H46.8136C55.9954 2 63.3591 9.36363 63.3591 18.5455V46C63.3591 55.1818 55.9954 62.5455 46.8136 62.5455Z" fill="#02E7D9"/>
<path fill-rule="evenodd" clip-rule="evenodd" d="M29.2682 14.8181C31.1773 14.8181 33.1773 14.8181 35.0864 14.8181C35.0864 23.9999 35.0864 33.1818 35.0864 42.3636C29.5409 43.2727 24.1773 43.8181 20.3591 41.7272C15.45 38.9999 14.9955 30.1818 18.9045 26.3636C20.9045 24.3636 24.9045 22.9999 29.1773 23.909C29.1773 20.9999 29.1773 18.0908 29.1773 15.2727C29.0864 14.9999 29.0864 14.8181 29.2682 14.8181ZM22.2682 33.4545C22.2682 37.0908 24.9045 39.1818 29.0864 38.2727C29.0864 35.0908 29.0864 31.909 29.0864 28.7272C24.8136 27.3636 22.2682 29.9999 22.2682 33.4545Z" fill="black"/>
<path fill-rule="evenodd" clip-rule="evenodd" d="M44.5409 14.8181C44.5409 16.8181 44.5409 18.909 44.5409 20.909C42.6318 20.909 40.6318 20.909 38.7227 20.909C38.7227 18.909 38.7227 16.8181 38.7227 14.8181C40.6318 14.8181 42.5409 14.8181 44.5409 14.8181Z" fill="black"/>
<path fill-rule="evenodd" clip-rule="evenodd" d="M44.5409 24.0001C44.5409 28.2728 44.5409 31.3637 44.5409 36.5455C44.2682 41.6365 44.3591 45.7274 42.45 48.1819C42.0864 48.6365 41.2682 49.3637 40.6318 49.9092C40.0864 50.3637 38.9955 51.1819 38.45 51.1819C37.8136 51.1819 36.2682 50.3637 35.6318 50.0001C34.7227 49.5455 33.9045 49.0001 32.9045 48.7274C35.0864 47.3637 37.2682 46.3637 38.0864 43.5455C38.8136 41.091 38.7227 37.6365 38.7227 34.1819C38.7227 30.8183 38.7227 26.9092 38.7227 23.9092L44.5409 24.0001Z" fill="black"/>
</g>
<defs>
<linearGradient id="paint0_linear" x1="-78.8198" y1="-94.5013" x2="77.2641" y2="78.1262" gradientUnits="userSpaceOnUse">
<stop/>
<stop offset="1" stop-opacity="0"/>
</linearGradient>
<clipPath id="clip0">
<rect width="116.273" height="115" fill="white" transform="translate(0.81366)"/>
</clipPath>
</defs>
</svg>
