<svg width="116" height="115" viewBox="0 0 116 115" fill="none" xmlns="http://www.w3.org/2000/svg">
<path d="M116 62.5455L61.129 114.909L5.62314 59.3636L5.16966 58.9091C1.99531 55.5455 0 51 0 46V44.5455L1.99531 42.5455L42.4457 2L44.441 0H45.9828C50.7897 0 55.1431 1.81818 58.4081 4.81818L58.5895 5L59.4058 5.81818L59.5872 6L116 62.5455Z" fill="url(#paint0_linear)"/>
<path d="M64.3941 18.5455V46C64.3941 56.2727 56.1407 64.5455 45.8921 64.5455H18.502C13.5137 64.5455 8.97889 62.5455 5.62314 59.2727L5.16966 58.8182C1.99531 55.5455 0 51 0 46V18.5455C0 8.36364 8.34402 0 18.502 0H45.8921C50.699 0 55.0524 1.81818 58.3174 4.81818L58.4988 5L59.3151 5.81818L59.4965 6C62.5801 9.36364 64.3941 13.7273 64.3941 18.5455Z" fill="black"/>
<path d="M45.8921 62.5455H18.5019C9.34166 62.5455 1.9953 55.1818 1.9953 46V18.5455C1.9953 9.36364 9.34166 2 18.5019 2H45.8921C55.0524 2 62.3988 9.36364 62.3988 18.5455V46C62.3988 55.1818 55.0524 62.5455 45.8921 62.5455Z" fill="#02E7D9"/>
<path fill-rule="evenodd" clip-rule="evenodd" d="M49.2479 21.909C44.6224 19.4545 38.4551 18.0908 31.9249 18.0908C25.3948 18.0908 19.2275 19.4545 14.602 21.909C9.88586 24.3635 7.25568 27.7272 7.25568 31.2726C7.25568 34.8181 9.88586 38.1817 14.602 40.6363C19.2275 43.0908 25.3948 44.4545 31.9249 44.4545C38.4551 44.4545 44.6224 43.0908 49.2479 40.6363C53.964 38.1817 56.5942 34.8181 56.5942 31.2726C56.5035 27.7272 53.964 24.3635 49.2479 21.909ZM31.8343 42.8181C19.1368 42.8181 8.8882 37.6363 8.8882 31.3635C8.8882 25.0908 19.2275 19.909 31.8343 19.909C44.5317 19.909 54.7803 25.0908 54.7803 31.3635C54.7803 37.6363 44.5317 42.8181 31.8343 42.8181Z" fill="black"/>
<path fill-rule="evenodd" clip-rule="evenodd" d="M26.3018 26.909C25.5762 26.0908 24.3972 25.6362 22.7647 25.6362H17.4136L14.9648 38.4544H17.7764L18.4113 34.9999H20.7693C21.8577 34.9999 22.674 34.909 23.3995 34.6362C24.1251 34.4544 24.6693 33.9999 25.2134 33.5453C25.6669 33.0908 26.0297 32.6362 26.3925 32.0908C26.6646 31.5453 26.846 30.9999 27.0274 30.3635C27.2994 28.9999 27.0274 27.818 26.3018 26.909ZM24.1251 30.2726C23.9437 31.2726 23.5809 31.9999 23.0367 32.3635C22.4926 32.818 21.6763 32.9999 20.4973 32.9999H18.774L19.7717 27.6362H21.767C22.8554 27.6362 23.4902 27.818 23.853 28.1817C24.2158 28.6362 24.3065 29.3635 24.1251 30.2726Z" fill="black"/>
<path fill-rule="evenodd" clip-rule="evenodd" d="M36.8225 26.4544C36.2783 25.9089 35.19 25.6362 33.6482 25.6362H31.1994L31.8342 22.1816H29.0227L26.5739 34.9998H29.3855L30.8366 27.6362H33.0133C33.7389 27.6362 34.1923 27.7271 34.3737 27.9998C34.5551 28.2725 34.6458 28.6362 34.5551 29.3635L33.4668 35.0907H36.2783L37.4574 29.0907C37.6388 27.9089 37.4574 26.9998 36.8225 26.4544Z" fill="black"/>
<path fill-rule="evenodd" clip-rule="evenodd" d="M44.6224 25.6362H39.2713L36.8225 38.4544H39.6341L40.269 34.9999H42.627C43.7154 34.9999 44.5317 34.909 45.2572 34.6362C45.9828 34.4544 46.527 33.9999 47.0711 33.5453C47.5246 33.0908 47.8874 32.6362 48.2502 32.0908C48.5223 31.5453 48.7037 30.9999 48.8851 30.3635C49.1572 28.818 48.9758 27.6362 48.2502 26.818C47.3432 26.0908 46.1642 25.6362 44.6224 25.6362ZM45.8921 30.2726C45.7107 31.2726 45.3479 31.9999 44.8037 32.3635C44.2596 32.818 43.4433 32.9999 42.2643 32.9999H40.541L41.5387 27.6362H43.534C44.6224 27.6362 45.2572 27.818 45.62 28.1817C45.9828 28.6362 46.0735 29.3635 45.8921 30.2726Z" fill="black"/>
<defs>
<linearGradient id="paint0_linear" x1="-79.4467" y1="-94.5013" x2="76.6736" y2="77.7614" gradientUnits="userSpaceOnUse">
<stop/>
<stop offset="1" stop-opacity="0"/>
</linearGradient>
</defs>
</svg>
