<svg width="118" height="115" viewBox="0 0 118 115" fill="none" xmlns="http://www.w3.org/2000/svg">
<g clip-path="url(#clip0)">
<path d="M117.086 62.5455L62.0864 114.909L6.45002 59.3636L5.99548 58.9091C2.81366 55.5455 0.81366 51 0.81366 46V44.5455L2.81366 42.5455L43.3591 2L45.3591 0H46.9046C51.7227 0 56.0864 1.81818 59.3591 4.81818L59.5409 5L60.3591 5.81818L60.5409 6L117.086 62.5455Z" fill="url(#paint0_linear)"/>
<path d="M65.3591 18.5455V46C65.3591 56.2727 57.0864 64.5455 46.8137 64.5455H19.3591C14.3591 64.5455 9.81366 62.5455 6.45002 59.2727L5.99548 58.8182C2.81366 55.5455 0.81366 51 0.81366 46V18.5455C0.81366 8.36364 9.1773 0 19.3591 0H46.8137C51.6318 0 55.9955 1.81818 59.2682 4.81818L59.45 5L60.2682 5.81818L60.45 6C63.5409 9.36364 65.3591 13.7273 65.3591 18.5455Z" fill="black"/>
<path d="M46.8136 62.5455H19.3591C10.1773 62.5455 2.81364 55.1818 2.81364 46V18.5455C2.81364 9.36363 10.1773 2 19.3591 2H46.8136C55.9955 2 63.3591 9.36363 63.3591 18.5455V46C63.3591 55.1818 55.9955 62.5455 46.8136 62.5455Z" fill="#02E7D9"/>
<path d="M37.1773 15.4547C35.8136 15.2729 34.45 15.0911 32.9955 15.0911H32.9045C31.5409 15.0911 30.1773 15.182 28.9955 15.4547C25.6318 16.0911 24.9955 17.2729 24.9955 19.5456V22.5456H33.2682V23.9092H21.7227C19.2682 23.9092 17.3591 25.4547 16.7227 28.0002C15.9955 31.182 15.9955 33.0911 16.7227 36.2729C17.1773 38.0911 18.2682 40.3638 20.9955 40.3638H23.6318V36.7274C23.6318 33.9092 26.0864 31.4547 28.9045 31.4547H37.1773C39.3591 31.4547 41.1773 29.6365 41.1773 27.4547V19.6365C41.1773 17.6365 39.45 15.9092 37.1773 15.4547ZM28.45 20.6365C27.6318 20.6365 26.9046 19.9092 26.9046 19.0911C26.9046 18.182 27.6318 17.5456 28.45 17.5456C29.2682 17.5456 29.9955 18.2729 29.9955 19.0911C29.9955 20.0002 29.2682 20.6365 28.45 20.6365Z" fill="black"/>
<path d="M49.3591 28.0001C48.6318 25.1819 47.45 23.9092 45.3591 23.9092H42.45V27.4546C42.45 30.3637 39.9955 32.8183 37.1773 32.8183H28.9955C26.8136 32.8183 24.9955 34.6365 24.9955 36.8183V44.6365C24.9955 47.091 27.5409 48.2728 28.9955 48.6365C30.45 49.091 31.7227 49.2728 32.9955 49.2728C34.2682 49.2728 35.6318 49.091 37.0864 48.6365C38.9045 48.091 41.0864 47.0001 41.0864 44.6365V41.6365H32.8136V40.2728H45.3591C47.5409 40.2728 48.45 38.8183 49.3591 36.1819C50.2682 33.8183 50.2682 31.4546 49.3591 28.0001ZM37.7227 43.7274C38.5409 43.7274 39.2682 44.4546 39.2682 45.2728C39.2682 46.1819 38.5409 46.8183 37.7227 46.8183C36.9045 46.8183 36.1773 46.091 36.1773 45.2728C36.1773 44.3637 36.8136 43.7274 37.7227 43.7274Z" fill="black"/>
</g>
<defs>
<linearGradient id="paint0_linear" x1="-78.8198" y1="-94.5013" x2="77.2641" y2="78.1262" gradientUnits="userSpaceOnUse">
<stop/>
<stop offset="1" stop-opacity="0"/>
</linearGradient>
<clipPath id="clip0">
<rect width="116.273" height="115" fill="white" transform="translate(0.81366)"/>
</clipPath>
</defs>
</svg>
